<mxfile host="app.diagrams.net" modified="2021-11-25T03:46:44.306Z" agent="5.0 (Windows NT 10.0; Win64; x64) AppleWebKit/537.36 (KHTML, like Gecko) Chrome/94.0.4606.81 Safari/537.36" etag="C68uTHWJUz2EzHK7IElM" version="15.7.3" type="github">
  <diagram id="bOsEiULzn8rHU1u4k9on" name="第 1 页">
    <mxGraphModel dx="813" dy="459" grid="1" gridSize="10" guides="1" tooltips="1" connect="1" arrows="1" fold="1" page="1" pageScale="1" pageWidth="827" pageHeight="1169" math="0" shadow="0">
      <root>
        <mxCell id="0" />
        <mxCell id="1" parent="0" />
        <mxCell id="BG9st-6FtoX4_F4H08LZ-1" value="" style="shape=table;html=1;whiteSpace=wrap;startSize=0;container=1;collapsible=0;childLayout=tableLayout;sketch=1;" vertex="1" parent="1">
          <mxGeometry x="234" y="320" width="180" height="120" as="geometry" />
        </mxCell>
        <mxCell id="BG9st-6FtoX4_F4H08LZ-2" value="" style="shape=partialRectangle;html=1;whiteSpace=wrap;collapsible=0;dropTarget=0;pointerEvents=0;fillColor=none;top=0;left=0;bottom=0;right=0;points=[[0,0.5],[1,0.5]];portConstraint=eastwest;" vertex="1" parent="BG9st-6FtoX4_F4H08LZ-1">
          <mxGeometry width="180" height="40" as="geometry" />
        </mxCell>
        <mxCell id="BG9st-6FtoX4_F4H08LZ-3" value="" style="shape=partialRectangle;html=1;whiteSpace=wrap;connectable=0;fillColor=none;top=0;left=0;bottom=0;right=0;overflow=hidden;pointerEvents=1;sketch=1;" vertex="1" parent="BG9st-6FtoX4_F4H08LZ-2">
          <mxGeometry width="60" height="40" as="geometry">
            <mxRectangle width="60" height="40" as="alternateBounds" />
          </mxGeometry>
        </mxCell>
        <mxCell id="BG9st-6FtoX4_F4H08LZ-4" value="" style="shape=partialRectangle;html=1;whiteSpace=wrap;connectable=0;fillColor=none;top=0;left=0;bottom=0;right=0;overflow=hidden;pointerEvents=1;" vertex="1" parent="BG9st-6FtoX4_F4H08LZ-2">
          <mxGeometry x="60" width="60" height="40" as="geometry">
            <mxRectangle width="60" height="40" as="alternateBounds" />
          </mxGeometry>
        </mxCell>
        <mxCell id="BG9st-6FtoX4_F4H08LZ-5" value="" style="shape=partialRectangle;html=1;whiteSpace=wrap;connectable=0;fillColor=none;top=0;left=0;bottom=0;right=0;overflow=hidden;pointerEvents=1;" vertex="1" parent="BG9st-6FtoX4_F4H08LZ-2">
          <mxGeometry x="120" width="60" height="40" as="geometry">
            <mxRectangle width="60" height="40" as="alternateBounds" />
          </mxGeometry>
        </mxCell>
        <mxCell id="BG9st-6FtoX4_F4H08LZ-6" value="" style="shape=partialRectangle;html=1;whiteSpace=wrap;collapsible=0;dropTarget=0;pointerEvents=0;fillColor=none;top=0;left=0;bottom=0;right=0;points=[[0,0.5],[1,0.5]];portConstraint=eastwest;" vertex="1" parent="BG9st-6FtoX4_F4H08LZ-1">
          <mxGeometry y="40" width="180" height="40" as="geometry" />
        </mxCell>
        <mxCell id="BG9st-6FtoX4_F4H08LZ-7" value="1" style="shape=partialRectangle;html=1;whiteSpace=wrap;connectable=0;fillColor=none;top=0;left=0;bottom=0;right=0;overflow=hidden;pointerEvents=1;" vertex="1" parent="BG9st-6FtoX4_F4H08LZ-6">
          <mxGeometry width="60" height="40" as="geometry">
            <mxRectangle width="60" height="40" as="alternateBounds" />
          </mxGeometry>
        </mxCell>
        <mxCell id="BG9st-6FtoX4_F4H08LZ-8" value="2" style="shape=partialRectangle;html=1;whiteSpace=wrap;connectable=0;fillColor=none;top=0;left=0;bottom=0;right=0;overflow=hidden;pointerEvents=1;" vertex="1" parent="BG9st-6FtoX4_F4H08LZ-6">
          <mxGeometry x="60" width="60" height="40" as="geometry">
            <mxRectangle width="60" height="40" as="alternateBounds" />
          </mxGeometry>
        </mxCell>
        <mxCell id="BG9st-6FtoX4_F4H08LZ-9" value="2&lt;span style=&quot;white-space: pre&quot;&gt;	&lt;/span&gt;&lt;span style=&quot;white-space: pre&quot;&gt;	&lt;/span&gt;" style="shape=partialRectangle;html=1;whiteSpace=wrap;connectable=0;fillColor=none;top=0;left=0;bottom=0;right=0;overflow=hidden;pointerEvents=1;" vertex="1" parent="BG9st-6FtoX4_F4H08LZ-6">
          <mxGeometry x="120" width="60" height="40" as="geometry">
            <mxRectangle width="60" height="40" as="alternateBounds" />
          </mxGeometry>
        </mxCell>
        <mxCell id="BG9st-6FtoX4_F4H08LZ-10" value="" style="shape=partialRectangle;html=1;whiteSpace=wrap;collapsible=0;dropTarget=0;pointerEvents=0;fillColor=none;top=0;left=0;bottom=0;right=0;points=[[0,0.5],[1,0.5]];portConstraint=eastwest;" vertex="1" parent="BG9st-6FtoX4_F4H08LZ-1">
          <mxGeometry y="80" width="180" height="40" as="geometry" />
        </mxCell>
        <mxCell id="BG9st-6FtoX4_F4H08LZ-11" value="" style="shape=partialRectangle;html=1;whiteSpace=wrap;connectable=0;fillColor=none;top=0;left=0;bottom=0;right=0;overflow=hidden;pointerEvents=1;" vertex="1" parent="BG9st-6FtoX4_F4H08LZ-10">
          <mxGeometry width="60" height="40" as="geometry">
            <mxRectangle width="60" height="40" as="alternateBounds" />
          </mxGeometry>
        </mxCell>
        <mxCell id="BG9st-6FtoX4_F4H08LZ-12" value="" style="shape=partialRectangle;html=1;whiteSpace=wrap;connectable=0;fillColor=none;top=0;left=0;bottom=0;right=0;overflow=hidden;pointerEvents=1;" vertex="1" parent="BG9st-6FtoX4_F4H08LZ-10">
          <mxGeometry x="60" width="60" height="40" as="geometry">
            <mxRectangle width="60" height="40" as="alternateBounds" />
          </mxGeometry>
        </mxCell>
        <mxCell id="BG9st-6FtoX4_F4H08LZ-13" value="" style="shape=partialRectangle;html=1;whiteSpace=wrap;connectable=0;fillColor=none;top=0;left=0;bottom=0;right=0;overflow=hidden;pointerEvents=1;" vertex="1" parent="BG9st-6FtoX4_F4H08LZ-10">
          <mxGeometry x="120" width="60" height="40" as="geometry">
            <mxRectangle width="60" height="40" as="alternateBounds" />
          </mxGeometry>
        </mxCell>
        <mxCell id="BG9st-6FtoX4_F4H08LZ-46" value="" style="rounded=0;whiteSpace=wrap;html=1;sketch=1;align=center;verticalAlign=top;" vertex="1" parent="1">
          <mxGeometry x="910" y="460" width="26" height="20" as="geometry" />
        </mxCell>
        <mxCell id="BG9st-6FtoX4_F4H08LZ-66" value="" style="rounded=0;whiteSpace=wrap;html=1;shadow=0;glass=0;sketch=1;align=center;verticalAlign=middle;" vertex="1" parent="1">
          <mxGeometry x="234" y="102" width="146" height="30" as="geometry" />
        </mxCell>
        <mxCell id="BG9st-6FtoX4_F4H08LZ-67" value="" style="group" vertex="1" connectable="0" parent="1">
          <mxGeometry x="234" y="132" width="146" height="20" as="geometry" />
        </mxCell>
        <mxCell id="BG9st-6FtoX4_F4H08LZ-60" value="1" style="rounded=0;whiteSpace=wrap;html=1;sketch=1;align=center;verticalAlign=middle;fillColor=#ffe6cc;strokeColor=#d79b00;glass=0;shadow=0;" vertex="1" parent="BG9st-6FtoX4_F4H08LZ-67">
          <mxGeometry x="73" width="18" height="20" as="geometry" />
        </mxCell>
        <mxCell id="BG9st-6FtoX4_F4H08LZ-44" value="1" style="rounded=0;whiteSpace=wrap;html=1;sketch=1;align=center;verticalAlign=middle;fillColor=#ffe6cc;strokeColor=#d79b00;glass=0;shadow=0;" vertex="1" parent="BG9st-6FtoX4_F4H08LZ-67">
          <mxGeometry width="18" height="20" as="geometry" />
        </mxCell>
        <mxCell id="BG9st-6FtoX4_F4H08LZ-54" value="1" style="rounded=0;whiteSpace=wrap;html=1;sketch=1;align=center;verticalAlign=middle;fillColor=#ffe6cc;strokeColor=#d79b00;glass=0;shadow=0;" vertex="1" parent="BG9st-6FtoX4_F4H08LZ-67">
          <mxGeometry x="18" width="18" height="20" as="geometry" />
        </mxCell>
        <mxCell id="BG9st-6FtoX4_F4H08LZ-56" value="1" style="rounded=0;whiteSpace=wrap;html=1;sketch=1;align=center;verticalAlign=middle;fillColor=#ffe6cc;strokeColor=#d79b00;glass=0;shadow=0;" vertex="1" parent="BG9st-6FtoX4_F4H08LZ-67">
          <mxGeometry x="128" width="18" height="20" as="geometry" />
        </mxCell>
        <mxCell id="BG9st-6FtoX4_F4H08LZ-57" value="1" style="rounded=0;whiteSpace=wrap;html=1;sketch=1;align=center;verticalAlign=middle;fillColor=#ffe6cc;strokeColor=#d79b00;glass=0;shadow=0;" vertex="1" parent="BG9st-6FtoX4_F4H08LZ-67">
          <mxGeometry x="36" width="18" height="20" as="geometry" />
        </mxCell>
        <mxCell id="BG9st-6FtoX4_F4H08LZ-58" value="1" style="rounded=0;whiteSpace=wrap;html=1;sketch=1;align=center;verticalAlign=middle;fillColor=#ffe6cc;strokeColor=#d79b00;glass=0;shadow=0;" vertex="1" parent="BG9st-6FtoX4_F4H08LZ-67">
          <mxGeometry x="110" width="18" height="20" as="geometry" />
        </mxCell>
        <mxCell id="BG9st-6FtoX4_F4H08LZ-59" value="1" style="rounded=0;whiteSpace=wrap;html=1;sketch=1;align=center;verticalAlign=middle;fillColor=#ffe6cc;strokeColor=#d79b00;glass=0;shadow=0;" vertex="1" parent="BG9st-6FtoX4_F4H08LZ-67">
          <mxGeometry x="54" width="18" height="20" as="geometry" />
        </mxCell>
        <mxCell id="BG9st-6FtoX4_F4H08LZ-61" value="1" style="rounded=0;whiteSpace=wrap;html=1;sketch=1;align=center;verticalAlign=middle;fillColor=#ffe6cc;strokeColor=#d79b00;glass=0;shadow=0;" vertex="1" parent="BG9st-6FtoX4_F4H08LZ-67">
          <mxGeometry x="90" width="20" height="20" as="geometry" />
        </mxCell>
        <mxCell id="BG9st-6FtoX4_F4H08LZ-69" value="" style="rounded=0;whiteSpace=wrap;html=1;shadow=0;glass=0;sketch=1;align=center;verticalAlign=middle;" vertex="1" parent="1">
          <mxGeometry x="380" y="102" width="146" height="30" as="geometry" />
        </mxCell>
        <mxCell id="BG9st-6FtoX4_F4H08LZ-70" value="" style="group" vertex="1" connectable="0" parent="1">
          <mxGeometry x="380" y="132" width="146" height="20" as="geometry" />
        </mxCell>
        <mxCell id="BG9st-6FtoX4_F4H08LZ-71" value="1" style="rounded=0;whiteSpace=wrap;html=1;sketch=1;align=center;verticalAlign=middle;fillColor=#ffe6cc;strokeColor=#d79b00;glass=0;shadow=0;" vertex="1" parent="BG9st-6FtoX4_F4H08LZ-70">
          <mxGeometry x="73" width="18" height="20" as="geometry" />
        </mxCell>
        <mxCell id="BG9st-6FtoX4_F4H08LZ-72" value="1" style="rounded=0;whiteSpace=wrap;html=1;sketch=1;align=center;verticalAlign=middle;fillColor=#ffe6cc;strokeColor=#d79b00;glass=0;shadow=0;" vertex="1" parent="BG9st-6FtoX4_F4H08LZ-70">
          <mxGeometry width="18" height="20" as="geometry" />
        </mxCell>
        <mxCell id="BG9st-6FtoX4_F4H08LZ-73" value="1" style="rounded=0;whiteSpace=wrap;html=1;sketch=1;align=center;verticalAlign=middle;fillColor=#ffe6cc;strokeColor=#d79b00;glass=0;shadow=0;" vertex="1" parent="BG9st-6FtoX4_F4H08LZ-70">
          <mxGeometry x="18" width="18" height="20" as="geometry" />
        </mxCell>
        <mxCell id="BG9st-6FtoX4_F4H08LZ-74" value="1" style="rounded=0;whiteSpace=wrap;html=1;sketch=1;align=center;verticalAlign=middle;fillColor=#ffe6cc;strokeColor=#d79b00;glass=0;shadow=0;" vertex="1" parent="BG9st-6FtoX4_F4H08LZ-70">
          <mxGeometry x="128" width="18" height="20" as="geometry" />
        </mxCell>
        <mxCell id="BG9st-6FtoX4_F4H08LZ-75" value="1" style="rounded=0;whiteSpace=wrap;html=1;sketch=1;align=center;verticalAlign=middle;fillColor=#ffe6cc;strokeColor=#d79b00;glass=0;shadow=0;" vertex="1" parent="BG9st-6FtoX4_F4H08LZ-70">
          <mxGeometry x="36" width="18" height="20" as="geometry" />
        </mxCell>
        <mxCell id="BG9st-6FtoX4_F4H08LZ-76" value="1" style="rounded=0;whiteSpace=wrap;html=1;sketch=1;align=center;verticalAlign=middle;fillColor=#ffe6cc;strokeColor=#d79b00;glass=0;shadow=0;" vertex="1" parent="BG9st-6FtoX4_F4H08LZ-70">
          <mxGeometry x="110" width="18" height="20" as="geometry" />
        </mxCell>
        <mxCell id="BG9st-6FtoX4_F4H08LZ-77" value="1" style="rounded=0;whiteSpace=wrap;html=1;sketch=1;align=center;verticalAlign=middle;fillColor=#ffe6cc;strokeColor=#d79b00;glass=0;shadow=0;" vertex="1" parent="BG9st-6FtoX4_F4H08LZ-70">
          <mxGeometry x="54" width="18" height="20" as="geometry" />
        </mxCell>
        <mxCell id="BG9st-6FtoX4_F4H08LZ-78" value="1" style="rounded=0;whiteSpace=wrap;html=1;sketch=1;align=center;verticalAlign=middle;fillColor=#ffe6cc;strokeColor=#d79b00;glass=0;shadow=0;" vertex="1" parent="BG9st-6FtoX4_F4H08LZ-70">
          <mxGeometry x="90" width="20" height="20" as="geometry" />
        </mxCell>
      </root>
    </mxGraphModel>
  </diagram>
</mxfile>
